<svg xmlns="http://www.w3.org/2000/svg" viewBox="0 0 72 72" width="72" height="72" role="img" aria-label="FLAIR Lab mark">
  <path d="M 61.00,36.00 L 60.78,36.19 L 60.57,36.39 L 60.35,36.57 L 60.13,36.76 L 59.91,36.94 L 59.69,37.12 L 59.47,37.29 L 59.25,37.46 L 59.04,37.63 L 58.82,37.80 L 58.61,37.96 L 58.40,38.12 L 58.20,38.27 L 57.99,38.43 L 57.79,38.58 L 57.60,38.73 L 57.40,38.87 L 57.21,39.02 L 57.03,39.16 L 56.85,39.30 L 56.68,39.44 L 56.51,39.58 L 56.34,39.72 L 56.19,39.85 L 56.03,39.99 L 55.89,40.12 L 55.75,40.25 L 55.62,40.38 L 55.49,40.52 L 55.37,40.65 L 55.25,40.78 L 55.15,40.92 L 55.05,41.05 L 54.96,41.19 L 54.87,41.32 L 54.79,41.46 L 54.72,41.60 L 54.65,41.74 L 54.60,41.88 L 54.55,42.03 L 54.50,42.17 L 54.46,42.32 L 54.43,42.47 L 54.41,42.63 L 54.39,42.79 L 54.38,42.95 L 54.38,43.11 L 54.38,43.28 L 54.39,43.45 L 54.40,43.62 L 54.42,43.80 L 54.45,43.98 L 54.48,44.17 L 54.51,44.36 L 54.55,44.55 L 54.59,44.75 L 54.64,44.95 L 54.69,45.16 L 54.75,45.37 L 54.81,45.58 L 54.87,45.80 L 54.94,46.03 L 55.00,46.25 L 55.07,46.49 L 55.15,46.72 L 55.22,46.96 L 55.29,47.21 L 55.37,47.45 L 55.45,47.71 L 55.52,47.96 L 55.60,48.22 L 55.67,48.48 L 55.75,48.75 L 55.82,49.02 L 55.89,49.29 L 55.97,49.57 L 56.03,49.85 L 56.10,50.13 L 56.16,50.41 L 56.23,50.69" fill="none" stroke="#662E7D" stroke-width="2.8" stroke-linecap="round"/>
  <path d="M 56.23,50.69 L 55.94,50.72 L 55.65,50.75 L 55.36,50.77 L 55.07,50.80 L 54.79,50.81 L 54.51,50.83 L 54.23,50.84 L 53.95,50.85 L 53.68,50.86 L 53.41,50.87 L 53.14,50.88 L 52.88,50.88 L 52.62,50.89 L 52.37,50.89 L 52.11,50.90 L 51.87,50.90 L 51.63,50.91 L 51.39,50.91 L 51.16,50.92 L 50.93,50.93 L 50.70,50.94 L 50.49,50.95 L 50.27,50.96 L 50.07,50.98 L 49.87,51.00 L 49.67,51.02 L 49.48,51.05 L 49.29,51.08 L 49.11,51.11 L 48.94,51.15 L 48.77,51.19 L 48.60,51.23 L 48.44,51.28 L 48.29,51.34 L 48.14,51.40 L 47.99,51.46 L 47.85,51.53 L 47.72,51.61 L 47.59,51.69 L 47.46,51.78 L 47.34,51.87 L 47.22,51.97 L 47.11,52.07 L 47.00,52.18 L 46.89,52.30 L 46.79,52.43 L 46.69,52.56 L 46.59,52.69 L 46.50,52.83 L 46.41,52.98 L 46.32,53.14 L 46.23,53.30 L 46.15,53.47 L 46.06,53.64 L 45.98,53.82 L 45.90,54.01 L 45.82,54.20 L 45.74,54.40 L 45.66,54.60 L 45.58,54.81 L 45.51,55.02 L 45.43,55.24 L 45.35,55.47 L 45.27,55.70 L 45.19,55.93 L 45.11,56.17 L 45.02,56.41 L 44.94,56.65 L 44.85,56.90 L 44.76,57.15 L 44.67,57.41 L 44.58,57.66 L 44.48,57.92 L 44.38,58.19 L 44.28,58.45 L 44.18,58.71 L 44.07,58.98 L 43.96,59.24 L 43.84,59.51 L 43.73,59.78" fill="none" stroke="#662E7D" stroke-width="2.8" stroke-linecap="round"/>
  <path d="M 43.73,59.78 L 43.47,59.63 L 43.22,59.48 L 42.98,59.33 L 42.73,59.18 L 42.49,59.03 L 42.26,58.88 L 42.02,58.72 L 41.79,58.57 L 41.57,58.42 L 41.34,58.26 L 41.13,58.11 L 40.91,57.96 L 40.70,57.81 L 40.49,57.67 L 40.28,57.52 L 40.08,57.38 L 39.88,57.24 L 39.68,57.11 L 39.49,56.98 L 39.30,56.85 L 39.12,56.73 L 38.93,56.61 L 38.75,56.50 L 38.58,56.39 L 38.40,56.29 L 38.23,56.19 L 38.06,56.10 L 37.89,56.01 L 37.73,55.93 L 37.56,55.86 L 37.40,55.79 L 37.24,55.73 L 37.08,55.68 L 36.93,55.63 L 36.77,55.59 L 36.61,55.56 L 36.46,55.53 L 36.31,55.51 L 36.15,55.50 L 36.00,55.50 L 35.85,55.50 L 35.69,55.51 L 35.54,55.53 L 35.39,55.56 L 35.23,55.59 L 35.07,55.63 L 34.92,55.68 L 34.76,55.73 L 34.60,55.79 L 34.44,55.86 L 34.27,55.93 L 34.11,56.01 L 33.94,56.10 L 33.77,56.19 L 33.60,56.29 L 33.42,56.39 L 33.25,56.50 L 33.07,56.61 L 32.88,56.73 L 32.70,56.85 L 32.51,56.98 L 32.32,57.11 L 32.12,57.24 L 31.92,57.38 L 31.72,57.52 L 31.51,57.67 L 31.30,57.81 L 31.09,57.96 L 30.87,58.11 L 30.66,58.26 L 30.43,58.42 L 30.21,58.57 L 29.98,58.72 L 29.74,58.88 L 29.51,59.03 L 29.27,59.18 L 29.02,59.33 L 28.78,59.48 L 28.53,59.63 L 28.27,59.78" fill="none" stroke="#662E7D" stroke-width="2.8" stroke-linecap="round"/>
  <path d="M 28.27,59.78 L 28.16,59.51 L 28.04,59.24 L 27.93,58.98 L 27.82,58.71 L 27.72,58.45 L 27.62,58.19 L 27.52,57.92 L 27.42,57.66 L 27.33,57.41 L 27.24,57.15 L 27.15,56.90 L 27.06,56.65 L 26.98,56.41 L 26.89,56.17 L 26.81,55.93 L 26.73,55.70 L 26.65,55.47 L 26.57,55.24 L 26.49,55.02 L 26.42,54.81 L 26.34,54.60 L 26.26,54.40 L 26.18,54.20 L 26.10,54.01 L 26.02,53.82 L 25.94,53.64 L 25.85,53.47 L 25.77,53.30 L 25.68,53.14 L 25.59,52.98 L 25.50,52.83 L 25.41,52.69 L 25.31,52.56 L 25.21,52.43 L 25.11,52.30 L 25.00,52.18 L 24.89,52.07 L 24.78,51.97 L 24.66,51.87 L 24.54,51.78 L 24.41,51.69 L 24.28,51.61 L 24.15,51.53 L 24.01,51.46 L 23.86,51.40 L 23.71,51.34 L 23.56,51.28 L 23.40,51.23 L 23.23,51.19 L 23.06,51.15 L 22.89,51.11 L 22.71,51.08 L 22.52,51.05 L 22.33,51.02 L 22.13,51.00 L 21.93,50.98 L 21.73,50.96 L 21.51,50.95 L 21.30,50.94 L 21.07,50.93 L 20.84,50.92 L 20.61,50.91 L 20.37,50.91 L 20.13,50.90 L 19.89,50.90 L 19.63,50.89 L 19.38,50.89 L 19.12,50.88 L 18.86,50.88 L 18.59,50.87 L 18.32,50.86 L 18.05,50.85 L 17.77,50.84 L 17.49,50.83 L 17.21,50.81 L 16.93,50.80 L 16.64,50.77 L 16.35,50.75 L 16.06,50.72 L 15.77,50.69" fill="none" stroke="#662E7D" stroke-width="2.8" stroke-linecap="round"/>
  <path d="M 15.77,50.69 L 15.84,50.41 L 15.90,50.13 L 15.97,49.85 L 16.03,49.57 L 16.11,49.29 L 16.18,49.02 L 16.25,48.75 L 16.33,48.48 L 16.40,48.22 L 16.48,47.96 L 16.55,47.71 L 16.63,47.45 L 16.71,47.21 L 16.78,46.96 L 16.85,46.72 L 16.93,46.49 L 17.00,46.25 L 17.06,46.03 L 17.13,45.80 L 17.19,45.58 L 17.25,45.37 L 17.31,45.16 L 17.36,44.95 L 17.41,44.75 L 17.45,44.55 L 17.49,44.36 L 17.52,44.17 L 17.55,43.98 L 17.58,43.80 L 17.60,43.62 L 17.61,43.45 L 17.62,43.28 L 17.62,43.11 L 17.62,42.95 L 17.61,42.79 L 17.59,42.63 L 17.57,42.47 L 17.54,42.32 L 17.50,42.17 L 17.45,42.03 L 17.40,41.88 L 17.35,41.74 L 17.28,41.60 L 17.21,41.46 L 17.13,41.32 L 17.04,41.19 L 16.95,41.05 L 16.85,40.92 L 16.75,40.78 L 16.63,40.65 L 16.51,40.52 L 16.38,40.38 L 16.25,40.25 L 16.11,40.12 L 15.97,39.99 L 15.81,39.85 L 15.66,39.72 L 15.49,39.58 L 15.32,39.44 L 15.15,39.30 L 14.97,39.16 L 14.79,39.02 L 14.60,38.87 L 14.40,38.73 L 14.21,38.58 L 14.01,38.43 L 13.80,38.27 L 13.60,38.12 L 13.39,37.96 L 13.18,37.80 L 12.96,37.63 L 12.75,37.46 L 12.53,37.29 L 12.31,37.12 L 12.09,36.94 L 11.87,36.76 L 11.65,36.57 L 11.43,36.39 L 11.22,36.19 L 11.00,36.00" fill="none" stroke="#662E7D" stroke-width="2.8" stroke-linecap="round"/>
  <path d="M 11.00,36.00 L 11.22,35.81 L 11.43,35.61 L 11.65,35.43 L 11.87,35.24 L 12.09,35.06 L 12.31,34.88 L 12.53,34.71 L 12.75,34.54 L 12.96,34.37 L 13.18,34.20 L 13.39,34.04 L 13.60,33.88 L 13.80,33.73 L 14.01,33.57 L 14.21,33.42 L 14.40,33.27 L 14.60,33.13 L 14.79,32.98 L 14.97,32.84 L 15.15,32.70 L 15.32,32.56 L 15.49,32.42 L 15.66,32.28 L 15.81,32.15 L 15.97,32.01 L 16.11,31.88 L 16.25,31.75 L 16.38,31.62 L 16.51,31.48 L 16.63,31.35 L 16.75,31.22 L 16.85,31.08 L 16.95,30.95 L 17.04,30.81 L 17.13,30.68 L 17.21,30.54 L 17.28,30.40 L 17.35,30.26 L 17.40,30.12 L 17.45,29.97 L 17.50,29.83 L 17.54,29.68 L 17.57,29.53 L 17.59,29.37 L 17.61,29.21 L 17.62,29.05 L 17.62,28.89 L 17.62,28.72 L 17.61,28.55 L 17.60,28.38 L 17.58,28.20 L 17.55,28.02 L 17.52,27.83 L 17.49,27.64 L 17.45,27.45 L 17.41,27.25 L 17.36,27.05 L 17.31,26.84 L 17.25,26.63 L 17.19,26.42 L 17.13,26.20 L 17.06,25.97 L 17.00,25.75 L 16.93,25.51 L 16.85,25.28 L 16.78,25.04 L 16.71,24.79 L 16.63,24.55 L 16.55,24.29 L 16.48,24.04 L 16.40,23.78 L 16.33,23.52 L 16.25,23.25 L 16.18,22.98 L 16.11,22.71 L 16.03,22.43 L 15.97,22.15 L 15.90,21.87 L 15.84,21.59 L 15.77,21.31" fill="none" stroke="#662E7D" stroke-width="2.8" stroke-linecap="round"/>
  <path d="M 15.77,21.31 L 16.06,21.28 L 16.35,21.25 L 16.64,21.23 L 16.93,21.20 L 17.21,21.19 L 17.49,21.17 L 17.77,21.16 L 18.05,21.15 L 18.32,21.14 L 18.59,21.13 L 18.86,21.12 L 19.12,21.12 L 19.38,21.11 L 19.63,21.11 L 19.89,21.10 L 20.13,21.10 L 20.37,21.09 L 20.61,21.09 L 20.84,21.08 L 21.07,21.07 L 21.30,21.06 L 21.51,21.05 L 21.73,21.04 L 21.93,21.02 L 22.13,21.00 L 22.33,20.98 L 22.52,20.95 L 22.71,20.92 L 22.89,20.89 L 23.06,20.85 L 23.23,20.81 L 23.40,20.77 L 23.56,20.72 L 23.71,20.66 L 23.86,20.60 L 24.01,20.54 L 24.15,20.47 L 24.28,20.39 L 24.41,20.31 L 24.54,20.22 L 24.66,20.13 L 24.78,20.03 L 24.89,19.93 L 25.00,19.82 L 25.11,19.70 L 25.21,19.57 L 25.31,19.44 L 25.41,19.31 L 25.50,19.17 L 25.59,19.02 L 25.68,18.86 L 25.77,18.70 L 25.85,18.53 L 25.94,18.36 L 26.02,18.18 L 26.10,17.99 L 26.18,17.80 L 26.26,17.60 L 26.34,17.40 L 26.42,17.19 L 26.49,16.98 L 26.57,16.76 L 26.65,16.53 L 26.73,16.30 L 26.81,16.07 L 26.89,15.83 L 26.98,15.59 L 27.06,15.35 L 27.15,15.10 L 27.24,14.85 L 27.33,14.59 L 27.42,14.34 L 27.52,14.08 L 27.62,13.81 L 27.72,13.55 L 27.82,13.29 L 27.93,13.02 L 28.04,12.76 L 28.16,12.49 L 28.27,12.22" fill="none" stroke="#662E7D" stroke-width="2.8" stroke-linecap="round"/>
  <path d="M 28.27,12.22 L 28.53,12.37 L 28.78,12.52 L 29.02,12.67 L 29.27,12.82 L 29.51,12.97 L 29.74,13.12 L 29.98,13.28 L 30.21,13.43 L 30.43,13.58 L 30.66,13.74 L 30.87,13.89 L 31.09,14.04 L 31.30,14.19 L 31.51,14.33 L 31.72,14.48 L 31.92,14.62 L 32.12,14.76 L 32.32,14.89 L 32.51,15.02 L 32.70,15.15 L 32.88,15.27 L 33.07,15.39 L 33.25,15.50 L 33.42,15.61 L 33.60,15.71 L 33.77,15.81 L 33.94,15.90 L 34.11,15.99 L 34.27,16.07 L 34.44,16.14 L 34.60,16.21 L 34.76,16.27 L 34.92,16.32 L 35.07,16.37 L 35.23,16.41 L 35.39,16.44 L 35.54,16.47 L 35.69,16.49 L 35.85,16.50 L 36.00,16.50 L 36.15,16.50 L 36.31,16.49 L 36.46,16.47 L 36.61,16.44 L 36.77,16.41 L 36.93,16.37 L 37.08,16.32 L 37.24,16.27 L 37.40,16.21 L 37.56,16.14 L 37.73,16.07 L 37.89,15.99 L 38.06,15.90 L 38.23,15.81 L 38.40,15.71 L 38.58,15.61 L 38.75,15.50 L 38.93,15.39 L 39.12,15.27 L 39.30,15.15 L 39.49,15.02 L 39.68,14.89 L 39.88,14.76 L 40.08,14.62 L 40.28,14.48 L 40.49,14.33 L 40.70,14.19 L 40.91,14.04 L 41.13,13.89 L 41.34,13.74 L 41.57,13.58 L 41.79,13.43 L 42.02,13.28 L 42.26,13.12 L 42.49,12.97 L 42.73,12.82 L 42.98,12.67 L 43.22,12.52 L 43.47,12.37 L 43.73,12.22" fill="none" stroke="#662E7D" stroke-width="2.8" stroke-linecap="round"/>
  <path d="M 43.73,12.22 L 43.84,12.49 L 43.96,12.76 L 44.07,13.02 L 44.18,13.29 L 44.28,13.55 L 44.38,13.81 L 44.48,14.08 L 44.58,14.34 L 44.67,14.59 L 44.76,14.85 L 44.85,15.10 L 44.94,15.35 L 45.02,15.59 L 45.11,15.83 L 45.19,16.07 L 45.27,16.30 L 45.35,16.53 L 45.43,16.76 L 45.51,16.98 L 45.58,17.19 L 45.66,17.40 L 45.74,17.60 L 45.82,17.80 L 45.90,17.99 L 45.98,18.18 L 46.06,18.36 L 46.15,18.53 L 46.23,18.70 L 46.32,18.86 L 46.41,19.02 L 46.50,19.17 L 46.59,19.31 L 46.69,19.44 L 46.79,19.57 L 46.89,19.70 L 47.00,19.82 L 47.11,19.93 L 47.22,20.03 L 47.34,20.13 L 47.46,20.22 L 47.59,20.31 L 47.72,20.39 L 47.85,20.47 L 47.99,20.54 L 48.14,20.60 L 48.29,20.66 L 48.44,20.72 L 48.60,20.77 L 48.77,20.81 L 48.94,20.85 L 49.11,20.89 L 49.29,20.92 L 49.48,20.95 L 49.67,20.98 L 49.87,21.00 L 50.07,21.02 L 50.27,21.04 L 50.49,21.05 L 50.70,21.06 L 50.93,21.07 L 51.16,21.08 L 51.39,21.09 L 51.63,21.09 L 51.87,21.10 L 52.11,21.10 L 52.37,21.11 L 52.62,21.11 L 52.88,21.12 L 53.14,21.12 L 53.41,21.13 L 53.68,21.14 L 53.95,21.15 L 54.23,21.16 L 54.51,21.17 L 54.79,21.19 L 55.07,21.20 L 55.36,21.23 L 55.65,21.25 L 55.94,21.28 L 56.23,21.31" fill="none" stroke="#662E7D" stroke-width="2.8" stroke-linecap="round"/>
  <path d="M 56.23,21.31 L 56.16,21.59 L 56.10,21.87 L 56.03,22.15 L 55.97,22.43 L 55.89,22.71 L 55.82,22.98 L 55.75,23.25 L 55.67,23.52 L 55.60,23.78 L 55.52,24.04 L 55.45,24.29 L 55.37,24.55 L 55.29,24.79 L 55.22,25.04 L 55.15,25.28 L 55.07,25.51 L 55.00,25.75 L 54.94,25.97 L 54.87,26.20 L 54.81,26.42 L 54.75,26.63 L 54.69,26.84 L 54.64,27.05 L 54.59,27.25 L 54.55,27.45 L 54.51,27.64 L 54.48,27.83 L 54.45,28.02 L 54.42,28.20 L 54.40,28.38 L 54.39,28.55 L 54.38,28.72 L 54.38,28.89 L 54.38,29.05 L 54.39,29.21 L 54.41,29.37 L 54.43,29.53 L 54.46,29.68 L 54.50,29.83 L 54.55,29.97 L 54.60,30.12 L 54.65,30.26 L 54.72,30.40 L 54.79,30.54 L 54.87,30.68 L 54.96,30.81 L 55.05,30.95 L 55.15,31.08 L 55.25,31.22 L 55.37,31.35 L 55.49,31.48 L 55.62,31.62 L 55.75,31.75 L 55.89,31.88 L 56.03,32.01 L 56.19,32.15 L 56.34,32.28 L 56.51,32.42 L 56.68,32.56 L 56.85,32.70 L 57.03,32.84 L 57.21,32.98 L 57.40,33.13 L 57.60,33.27 L 57.79,33.42 L 57.99,33.57 L 58.20,33.73 L 58.40,33.88 L 58.61,34.04 L 58.82,34.20 L 59.04,34.37 L 59.25,34.54 L 59.47,34.71 L 59.69,34.88 L 59.91,35.06 L 60.13,35.24 L 60.35,35.43 L 60.57,35.61 L 60.78,35.81 L 61.00,36.00 L 61.00,36.00" fill="none" stroke="#662E7D" stroke-width="2.8" stroke-linecap="round"/>
  <path d="M 61.00,36.00 L 61.22,36.20 L 61.43,36.40 L 61.64,36.60 L 61.85,36.81 L 62.05,37.02 L 62.25,37.24 L 62.45,37.46 L 62.65,37.68 L 62.84,37.90 L 63.02,38.13 L 63.20,38.36 L 63.37,38.59 L 63.54,38.82 L 63.71,39.06 L 63.86,39.30 L 64.01,39.54 L 64.15,39.78 L 64.29,40.03 L 64.41,40.27 L 64.53,40.52 L 64.64,40.77 L 64.75,41.02 L 64.84,41.27 L 64.93,41.52 L 65.00,41.77 L 65.07,42.02 L 65.13,42.27 L 65.18,42.52 L 65.22,42.77 L 65.25,43.02 L 65.27,43.27 L 65.28,43.52 L 65.28,43.76 L 65.27,44.01 L 65.25,44.25 L 65.22,44.49 L 65.18,44.73 L 65.14,44.96 L 65.08,45.20 L 65.01,45.43 L 64.93,45.65 L 64.84,45.87 L 64.74,46.09 L 64.63,46.31 L 64.52,46.52 L 64.39,46.73 L 64.25,46.93 L 64.11,47.13 L 63.95,47.32 L 63.79,47.51 L 63.62,47.70 L 63.44,47.87 L 63.25,48.05 L 63.06,48.22 L 62.86,48.38 L 62.65,48.54 L 62.43,48.69 L 62.21,48.84 L 61.98,48.98 L 61.74,49.12 L 61.50,49.25 L 61.25,49.37 L 61.00,49.49 L 60.74,49.60 L 60.48,49.71 L 60.21,49.81 L 59.94,49.91 L 59.67,50.00 L 59.39,50.08 L 59.11,50.16 L 58.83,50.24 L 58.54,50.31 L 58.26,50.37 L 57.97,50.43 L 57.68,50.49 L 57.39,50.54 L 57.10,50.58 L 56.81,50.62 L 56.52,50.66 L 56.23,50.69" fill="none" stroke="#662E7D" stroke-width="2.8" stroke-linecap="round"/>
  <path d="M 56.23,50.69 L 56.28,50.98 L 56.34,51.27 L 56.39,51.56 L 56.43,51.85 L 56.48,52.14 L 56.51,52.43 L 56.55,52.73 L 56.57,53.02 L 56.59,53.31 L 56.61,53.60 L 56.62,53.89 L 56.63,54.18 L 56.62,54.47 L 56.62,54.76 L 56.60,55.04 L 56.58,55.33 L 56.55,55.61 L 56.52,55.88 L 56.48,56.16 L 56.43,56.43 L 56.37,56.69 L 56.31,56.96 L 56.24,57.21 L 56.16,57.47 L 56.07,57.72 L 55.98,57.96 L 55.88,58.20 L 55.77,58.43 L 55.66,58.65 L 55.54,58.87 L 55.41,59.09 L 55.27,59.29 L 55.13,59.49 L 54.97,59.68 L 54.82,59.87 L 54.65,60.05 L 54.48,60.22 L 54.30,60.38 L 54.12,60.53 L 53.93,60.68 L 53.73,60.81 L 53.53,60.94 L 53.32,61.06 L 53.11,61.17 L 52.89,61.27 L 52.66,61.37 L 52.43,61.45 L 52.20,61.52 L 51.96,61.59 L 51.72,61.65 L 51.47,61.70 L 51.22,61.74 L 50.97,61.77 L 50.71,61.79 L 50.45,61.80 L 50.19,61.81 L 49.92,61.80 L 49.66,61.79 L 49.39,61.77 L 49.12,61.74 L 48.84,61.70 L 48.57,61.66 L 48.30,61.61 L 48.02,61.55 L 47.75,61.48 L 47.47,61.40 L 47.20,61.32 L 46.92,61.24 L 46.65,61.14 L 46.37,61.04 L 46.10,60.94 L 45.83,60.82 L 45.56,60.71 L 45.29,60.59 L 45.02,60.46 L 44.76,60.33 L 44.50,60.20 L 44.24,60.06 L 43.98,59.92 L 43.73,59.78" fill="none" stroke="#662E7D" stroke-width="2.8" stroke-linecap="round"/>
  <path d="M 43.73,59.78 L 43.60,60.04 L 43.48,60.31 L 43.35,60.57 L 43.21,60.83 L 43.08,61.09 L 42.94,61.35 L 42.79,61.61 L 42.64,61.86 L 42.49,62.11 L 42.33,62.36 L 42.16,62.60 L 42.00,62.83 L 41.83,63.07 L 41.65,63.29 L 41.47,63.52 L 41.29,63.73 L 41.10,63.94 L 40.91,64.15 L 40.72,64.34 L 40.52,64.53 L 40.32,64.72 L 40.11,64.89 L 39.90,65.06 L 39.69,65.22 L 39.48,65.37 L 39.26,65.51 L 39.04,65.64 L 38.81,65.77 L 38.59,65.88 L 38.36,65.99 L 38.13,66.08 L 37.90,66.17 L 37.66,66.25 L 37.43,66.31 L 37.19,66.37 L 36.96,66.42 L 36.72,66.45 L 36.48,66.48 L 36.24,66.49 L 36.00,66.50 L 35.76,66.49 L 35.52,66.48 L 35.28,66.45 L 35.04,66.42 L 34.81,66.37 L 34.57,66.31 L 34.34,66.25 L 34.10,66.17 L 33.87,66.08 L 33.64,65.99 L 33.41,65.88 L 33.19,65.77 L 32.96,65.64 L 32.74,65.51 L 32.52,65.37 L 32.31,65.22 L 32.10,65.06 L 31.89,64.89 L 31.68,64.72 L 31.48,64.53 L 31.28,64.34 L 31.09,64.15 L 30.90,63.94 L 30.71,63.73 L 30.53,63.52 L 30.35,63.29 L 30.17,63.07 L 30.00,62.83 L 29.84,62.60 L 29.67,62.36 L 29.51,62.11 L 29.36,61.86 L 29.21,61.61 L 29.06,61.35 L 28.92,61.09 L 28.79,60.83 L 28.65,60.57 L 28.52,60.31 L 28.40,60.04 L 28.27,59.78" fill="none" stroke="#662E7D" stroke-width="2.8" stroke-linecap="round"/>
  <path d="M 28.27,59.78 L 28.02,59.92 L 27.76,60.06 L 27.50,60.20 L 27.24,60.33 L 26.98,60.46 L 26.71,60.59 L 26.44,60.71 L 26.17,60.82 L 25.90,60.94 L 25.63,61.04 L 25.35,61.14 L 25.08,61.24 L 24.80,61.32 L 24.53,61.40 L 24.25,61.48 L 23.98,61.55 L 23.70,61.61 L 23.43,61.66 L 23.16,61.70 L 22.88,61.74 L 22.61,61.77 L 22.34,61.79 L 22.08,61.80 L 21.81,61.81 L 21.55,61.80 L 21.29,61.79 L 21.03,61.77 L 20.78,61.74 L 20.53,61.70 L 20.28,61.65 L 20.04,61.59 L 19.80,61.52 L 19.57,61.45 L 19.34,61.37 L 19.11,61.27 L 18.89,61.17 L 18.68,61.06 L 18.47,60.94 L 18.27,60.81 L 18.07,60.68 L 17.88,60.53 L 17.70,60.38 L 17.52,60.22 L 17.35,60.05 L 17.18,59.87 L 17.03,59.68 L 16.87,59.49 L 16.73,59.29 L 16.59,59.09 L 16.46,58.87 L 16.34,58.65 L 16.23,58.43 L 16.12,58.20 L 16.02,57.96 L 15.93,57.72 L 15.84,57.47 L 15.76,57.21 L 15.69,56.96 L 15.63,56.69 L 15.57,56.43 L 15.52,56.16 L 15.48,55.88 L 15.45,55.61 L 15.42,55.33 L 15.40,55.04 L 15.38,54.76 L 15.38,54.47 L 15.37,54.18 L 15.38,53.89 L 15.39,53.60 L 15.41,53.31 L 15.43,53.02 L 15.45,52.73 L 15.49,52.43 L 15.52,52.14 L 15.57,51.85 L 15.61,51.56 L 15.66,51.27 L 15.72,50.98 L 15.77,50.69" fill="none" stroke="#662E7D" stroke-width="2.8" stroke-linecap="round"/>
  <path d="M 15.77,50.69 L 15.48,50.66 L 15.19,50.62 L 14.90,50.58 L 14.61,50.54 L 14.32,50.49 L 14.03,50.43 L 13.74,50.37 L 13.46,50.31 L 13.17,50.24 L 12.89,50.16 L 12.61,50.08 L 12.33,50.00 L 12.06,49.91 L 11.79,49.81 L 11.52,49.71 L 11.26,49.60 L 11.00,49.49 L 10.75,49.37 L 10.50,49.25 L 10.26,49.12 L 10.02,48.98 L 9.79,48.84 L 9.57,48.69 L 9.35,48.54 L 9.14,48.38 L 8.94,48.22 L 8.75,48.05 L 8.56,47.87 L 8.38,47.70 L 8.21,47.51 L 8.05,47.32 L 7.89,47.13 L 7.75,46.93 L 7.61,46.73 L 7.48,46.52 L 7.37,46.31 L 7.26,46.09 L 7.16,45.87 L 7.07,45.65 L 6.99,45.43 L 6.92,45.20 L 6.86,44.96 L 6.82,44.73 L 6.78,44.49 L 6.75,44.25 L 6.73,44.01 L 6.72,43.76 L 6.72,43.52 L 6.73,43.27 L 6.75,43.02 L 6.78,42.77 L 6.82,42.52 L 6.87,42.27 L 6.93,42.02 L 7.00,41.77 L 7.07,41.52 L 7.16,41.27 L 7.25,41.02 L 7.36,40.77 L 7.47,40.52 L 7.59,40.27 L 7.71,40.03 L 7.85,39.78 L 7.99,39.54 L 8.14,39.30 L 8.29,39.06 L 8.46,38.82 L 8.63,38.59 L 8.80,38.36 L 8.98,38.13 L 9.16,37.90 L 9.35,37.68 L 9.55,37.46 L 9.75,37.24 L 9.95,37.02 L 10.15,36.81 L 10.36,36.60 L 10.57,36.40 L 10.78,36.20 L 11.00,36.00" fill="none" stroke="#662E7D" stroke-width="2.8" stroke-linecap="round"/>
  <path d="M 11.00,36.00 L 10.78,35.80 L 10.57,35.60 L 10.36,35.40 L 10.15,35.19 L 9.95,34.98 L 9.75,34.76 L 9.55,34.54 L 9.35,34.32 L 9.16,34.10 L 8.98,33.87 L 8.80,33.64 L 8.63,33.41 L 8.46,33.18 L 8.29,32.94 L 8.14,32.70 L 7.99,32.46 L 7.85,32.22 L 7.71,31.97 L 7.59,31.73 L 7.47,31.48 L 7.36,31.23 L 7.25,30.98 L 7.16,30.73 L 7.07,30.48 L 7.00,30.23 L 6.93,29.98 L 6.87,29.73 L 6.82,29.48 L 6.78,29.23 L 6.75,28.98 L 6.73,28.73 L 6.72,28.48 L 6.72,28.24 L 6.73,27.99 L 6.75,27.75 L 6.78,27.51 L 6.82,27.27 L 6.86,27.04 L 6.92,26.80 L 6.99,26.57 L 7.07,26.35 L 7.16,26.13 L 7.26,25.91 L 7.37,25.69 L 7.48,25.48 L 7.61,25.27 L 7.75,25.07 L 7.89,24.87 L 8.05,24.68 L 8.21,24.49 L 8.38,24.30 L 8.56,24.13 L 8.75,23.95 L 8.94,23.78 L 9.14,23.62 L 9.35,23.46 L 9.57,23.31 L 9.79,23.16 L 10.02,23.02 L 10.26,22.88 L 10.50,22.75 L 10.75,22.63 L 11.00,22.51 L 11.26,22.40 L 11.52,22.29 L 11.79,22.19 L 12.06,22.09 L 12.33,22.00 L 12.61,21.92 L 12.89,21.84 L 13.17,21.76 L 13.46,21.69 L 13.74,21.63 L 14.03,21.57 L 14.32,21.51 L 14.61,21.46 L 14.90,21.42 L 15.19,21.38 L 15.48,21.34 L 15.77,21.31" fill="none" stroke="#662E7D" stroke-width="2.8" stroke-linecap="round"/>
  <path d="M 15.77,21.31 L 15.72,21.02 L 15.66,20.73 L 15.61,20.44 L 15.57,20.15 L 15.52,19.86 L 15.49,19.57 L 15.45,19.27 L 15.43,18.98 L 15.41,18.69 L 15.39,18.40 L 15.38,18.11 L 15.37,17.82 L 15.38,17.53 L 15.38,17.24 L 15.40,16.96 L 15.42,16.67 L 15.45,16.39 L 15.48,16.12 L 15.52,15.84 L 15.57,15.57 L 15.63,15.31 L 15.69,15.04 L 15.76,14.79 L 15.84,14.53 L 15.93,14.28 L 16.02,14.04 L 16.12,13.80 L 16.23,13.57 L 16.34,13.35 L 16.46,13.13 L 16.59,12.91 L 16.73,12.71 L 16.87,12.51 L 17.03,12.32 L 17.18,12.13 L 17.35,11.95 L 17.52,11.78 L 17.70,11.62 L 17.88,11.47 L 18.07,11.32 L 18.27,11.19 L 18.47,11.06 L 18.68,10.94 L 18.89,10.83 L 19.11,10.73 L 19.34,10.63 L 19.57,10.55 L 19.80,10.48 L 20.04,10.41 L 20.28,10.35 L 20.53,10.30 L 20.78,10.26 L 21.03,10.23 L 21.29,10.21 L 21.55,10.20 L 21.81,10.19 L 22.08,10.20 L 22.34,10.21 L 22.61,10.23 L 22.88,10.26 L 23.16,10.30 L 23.43,10.34 L 23.70,10.39 L 23.98,10.45 L 24.25,10.52 L 24.53,10.60 L 24.80,10.68 L 25.08,10.76 L 25.35,10.86 L 25.63,10.96 L 25.90,11.06 L 26.17,11.18 L 26.44,11.29 L 26.71,11.41 L 26.98,11.54 L 27.24,11.67 L 27.50,11.80 L 27.76,11.94 L 28.02,12.08 L 28.27,12.22" fill="none" stroke="#662E7D" stroke-width="2.8" stroke-linecap="round"/>
  <path d="M 28.27,12.22 L 28.40,11.96 L 28.52,11.69 L 28.65,11.43 L 28.79,11.17 L 28.92,10.91 L 29.06,10.65 L 29.21,10.39 L 29.36,10.14 L 29.51,9.89 L 29.67,9.64 L 29.84,9.40 L 30.00,9.17 L 30.17,8.93 L 30.35,8.71 L 30.53,8.48 L 30.71,8.27 L 30.90,8.06 L 31.09,7.85 L 31.28,7.66 L 31.48,7.47 L 31.68,7.28 L 31.89,7.11 L 32.10,6.94 L 32.31,6.78 L 32.52,6.63 L 32.74,6.49 L 32.96,6.36 L 33.19,6.23 L 33.41,6.12 L 33.64,6.01 L 33.87,5.92 L 34.10,5.83 L 34.34,5.75 L 34.57,5.69 L 34.81,5.63 L 35.04,5.58 L 35.28,5.55 L 35.52,5.52 L 35.76,5.51 L 36.00,5.50 L 36.24,5.51 L 36.48,5.52 L 36.72,5.55 L 36.96,5.58 L 37.19,5.63 L 37.43,5.69 L 37.66,5.75 L 37.90,5.83 L 38.13,5.92 L 38.36,6.01 L 38.59,6.12 L 38.81,6.23 L 39.04,6.36 L 39.26,6.49 L 39.48,6.63 L 39.69,6.78 L 39.90,6.94 L 40.11,7.11 L 40.32,7.28 L 40.52,7.47 L 40.72,7.66 L 40.91,7.85 L 41.10,8.06 L 41.29,8.27 L 41.47,8.48 L 41.65,8.71 L 41.83,8.93 L 42.00,9.17 L 42.16,9.40 L 42.33,9.64 L 42.49,9.89 L 42.64,10.14 L 42.79,10.39 L 42.94,10.65 L 43.08,10.91 L 43.21,11.17 L 43.35,11.43 L 43.48,11.69 L 43.60,11.96 L 43.73,12.22" fill="none" stroke="#662E7D" stroke-width="2.8" stroke-linecap="round"/>
  <path d="M 43.73,12.22 L 43.98,12.08 L 44.24,11.94 L 44.50,11.80 L 44.76,11.67 L 45.02,11.54 L 45.29,11.41 L 45.56,11.29 L 45.83,11.18 L 46.10,11.06 L 46.37,10.96 L 46.65,10.86 L 46.92,10.76 L 47.20,10.68 L 47.47,10.60 L 47.75,10.52 L 48.02,10.45 L 48.30,10.39 L 48.57,10.34 L 48.84,10.30 L 49.12,10.26 L 49.39,10.23 L 49.66,10.21 L 49.92,10.20 L 50.19,10.19 L 50.45,10.20 L 50.71,10.21 L 50.97,10.23 L 51.22,10.26 L 51.47,10.30 L 51.72,10.35 L 51.96,10.41 L 52.20,10.48 L 52.43,10.55 L 52.66,10.63 L 52.89,10.73 L 53.11,10.83 L 53.32,10.94 L 53.53,11.06 L 53.73,11.19 L 53.93,11.32 L 54.12,11.47 L 54.30,11.62 L 54.48,11.78 L 54.65,11.95 L 54.82,12.13 L 54.97,12.32 L 55.13,12.51 L 55.27,12.71 L 55.41,12.91 L 55.54,13.13 L 55.66,13.35 L 55.77,13.57 L 55.88,13.80 L 55.98,14.04 L 56.07,14.28 L 56.16,14.53 L 56.24,14.79 L 56.31,15.04 L 56.37,15.31 L 56.43,15.57 L 56.48,15.84 L 56.52,16.12 L 56.55,16.39 L 56.58,16.67 L 56.60,16.96 L 56.62,17.24 L 56.62,17.53 L 56.63,17.82 L 56.62,18.11 L 56.61,18.40 L 56.59,18.69 L 56.57,18.98 L 56.55,19.27 L 56.51,19.57 L 56.48,19.86 L 56.43,20.15 L 56.39,20.44 L 56.34,20.73 L 56.28,21.02 L 56.23,21.31" fill="none" stroke="#662E7D" stroke-width="2.8" stroke-linecap="round"/>
  <path d="M 56.23,21.31 L 56.52,21.34 L 56.81,21.38 L 57.10,21.42 L 57.39,21.46 L 57.68,21.51 L 57.97,21.57 L 58.26,21.63 L 58.54,21.69 L 58.83,21.76 L 59.11,21.84 L 59.39,21.92 L 59.67,22.00 L 59.94,22.09 L 60.21,22.19 L 60.48,22.29 L 60.74,22.40 L 61.00,22.51 L 61.25,22.63 L 61.50,22.75 L 61.74,22.88 L 61.98,23.02 L 62.21,23.16 L 62.43,23.31 L 62.65,23.46 L 62.86,23.62 L 63.06,23.78 L 63.25,23.95 L 63.44,24.13 L 63.62,24.30 L 63.79,24.49 L 63.95,24.68 L 64.11,24.87 L 64.25,25.07 L 64.39,25.27 L 64.52,25.48 L 64.63,25.69 L 64.74,25.91 L 64.84,26.13 L 64.93,26.35 L 65.01,26.57 L 65.08,26.80 L 65.14,27.04 L 65.18,27.27 L 65.22,27.51 L 65.25,27.75 L 65.27,27.99 L 65.28,28.24 L 65.28,28.48 L 65.27,28.73 L 65.25,28.98 L 65.22,29.23 L 65.18,29.48 L 65.13,29.73 L 65.07,29.98 L 65.00,30.23 L 64.93,30.48 L 64.84,30.73 L 64.75,30.98 L 64.64,31.23 L 64.53,31.48 L 64.41,31.73 L 64.29,31.97 L 64.15,32.22 L 64.01,32.46 L 63.86,32.70 L 63.71,32.94 L 63.54,33.18 L 63.37,33.41 L 63.20,33.64 L 63.02,33.87 L 62.84,34.10 L 62.65,34.32 L 62.45,34.54 L 62.25,34.76 L 62.05,34.98 L 61.85,35.19 L 61.64,35.40 L 61.43,35.60 L 61.22,35.80 L 61.00,36.00 L 61.00,36.00" fill="none" stroke="#662E7D" stroke-width="2.8" stroke-linecap="round"/>
</svg>